<?xml version="1.0" encoding="UTF-8" standalone="no"?>
<!DOCTYPE svg PUBLIC "-//W3C//DTD SVG 1.1//EN" "http://www.w3.org/Graphics/SVG/1.1/DTD/svg11.dtd">
<svg width="700" height="578" viewBox="-10 -10 700 578" xmlns="http://www.w3.org/2000/svg" xmlns:xlink="http://www.w3.org/1999/xlink">
<defs>
<pattern id="grid" width="50" height="60" y="64" patternUnits="userSpaceOnUse">
<path d="M 50 0 L 0 0 0 60" fill="none" stroke="black" stroke-width="0.2"/>
</pattern>
<pattern id="xaxis" width="10" height="8" patternUnits="userSpaceOnUse">
<path d="M 0 0 L 0 8" fill="none" stroke="black" stroke-width="0.2"/>
</pattern>
<pattern id="yaxis" width="8" height="12" y="64" patternUnits="userSpaceOnUse">
<path d="M 0 0 L 8 0" fill="none" stroke="black" stroke-width="0.2"/>
</pattern>
</defs>
<rect width="500" height="480" y="64" fill="none" stroke="black" stroke-width="0.2" />
<rect width="500" height="480" y="64" fill="url(#grid)" />
<rect y="300" width="500" height="8" fill="url(#xaxis)" />
<rect x="246" y="64" width="8" height="480" fill="url(#yaxis)" />
<polyline stroke="black" points="0,560 500,560" stroke-width="1" fill="none" />
<polyline stroke="black" points="500,560 500,50" stroke-width="1" fill="none" />
<polyline stroke="black" points="500,50 0,50" stroke-width="1" fill="none" />
<polyline stroke="black" points="0,50 0,560" stroke-width="1" fill="none" />
<polyline stroke="black" points="1,302 2,300 3,294 4,290 5,286 6,282 7,278 8,274 9,270 10,266 11,260 12,258 13,254 14,250 15,246 16,242 17,238 18,234 19,230 20,226 21,222 22,220 23,216 24,212 25,210 26,206 27,202 28,200 29,198 30,194 31,192 32,188 33,186 34,184 35,182 36,180 37,178 38,176 39,174 40,172 41,172 42,170 43,168 44,168 45,166 46,166 47,166 48,164 49,164 50,164 51,164 52,164 53,164 54,164 55,164 56,166 57,166 58,166 59,168 60,168 61,170 62,172 63,174 64,174 65,176 66,178 67,180 68,182 69,184 70,186 71,190 72,192 73,194 74,198 75,202 76,204 77,208 78,210 79,214 80,218 81,220 82,224 83,228 84,232 85,236 86,240 87,244 88,248 89,252 90,256 91,260 92,264 93,268 94,272 95,276 96,282 97,286 98,290 99,294 100,298 101,302 102,308 103,312 104,316 105,320 106,324 107,330 108,334 109,338 110,342 111,346 112,350 113,354 114,358 115,362 116,366 117,370 118,374 119,376 120,380 121,384 122,386 123,390 124,394 125,396 126,400 127,402 128,406 129,408 130,412 131,414 132,416 133,418 134,422 135,424 136,424 137,426 138,428 139,430 140,432 141,432 142,432 143,434 144,434 145,434 146,436 147,436 148,436 149,436 150,436 151,436 152,436 153,436 154,436 155,436 156,434 157,434 158,432 159,432 160,432 161,432 162,430 163,428 164,426 165,424 166,422 167,420 168,418 169,414 170,414 171,410 172,408 173,404 174,402 175,398 176,394 177,392 178,388 179,386 180,382 181,378 182,376 183,372 184,368 185,364 186,360 187,356 188,352 189,348 190,344 191,340 192,336 193,332 194,328 195,324 196,320 197,314 198,310 199,306 200,302 201,298 202,294 203,288 204,284 205,280 206,276 207,272 208,268 209,264 210,260 211,256 212,252 213,246 214,244 215,240 216,236 217,232 218,228 219,224 220,220 221,218 222,214 223,212 224,208 225,204 226,202 227,198 228,196 229,192 230,190 231,188 232,186 233,184 234,182 235,178 236,178 237,174 238,174 239,172 240,170 241,170 242,168 243,168 244,166 245,166 246,166 247,164 248,166 249,164 250,164 251,164 252,164 253,164 254,164 255,166 256,166 257,168 258,168 259,170 260,170 261,172 262,174 263,176 264,178 265,180 266,182 267,184 268,186 269,188 270,190 271,194 272,196 273,200 274,202 275,206 276,210 277,212 278,216 279,220 280,222 281,226 282,230 283,234 284,238 285,242 286,244 287,250 288,254 289,258 290,262 291,266 292,270 293,274 294,278 295,284 296,288 297,292 298,296 299,300 300,304 301,310 302,314 303,318 304,322 305,326 306,330 307,334 308,338 309,342 310,348 311,350 312,356 313,360 314,364 315,368 316,370 317,374 318,378 319,382 320,386 321,388 322,392 323,394 324,398 325,402 326,404 327,406 328,410 329,412 330,414 331,418 332,420 333,422 334,424 335,426 336,428 337,430 338,430 339,432 340,432 341,432 342,434 343,434 344,436 345,436 346,436 347,436 348,436 349,436 350,436 351,436 352,436 353,436 354,436 355,434 356,434 357,432 358,432 359,432 360,430 361,428 362,426 363,426 364,424 365,420 366,418 367,416 368,414 369,412 370,410 371,406 372,404 373,400 374,398 375,394 376,390 377,388 378,384 379,380 380,378 381,374 382,370 383,366 384,362 385,358 386,354 387,350 388,346 389,342 390,338 391,334 392,330 393,326 394,322 395,318 396,312 397,308 398,304 399,300 400,296 401,292 402,288 403,282 404,278 405,274 406,270 407,266 408,262 409,258 410,254 411,250 412,246 413,242 414,238 415,234 416,230 417,228 418,222 419,220 420,216 421,214 422,210 423,208 424,204 425,200 426,198 427,194 428,192 429,190 430,186 431,184 432,182 433,180 434,178 435,176 436,174 437,172 438,172 439,170 440,170 441,168 442,168 443,166 444,166 445,164 446,164 447,164 448,164 449,164 450,164 451,164 452,164 453,166 454,166 455,168 456,168 457,168 458,170 459,172 460,172 461,174 462,176 463,178 464,180 465,182 466,184 467,188 468,190 469,192 470,194 471,198 472,200 473,204 474,206 475,210 476,214 477,216 478,220 479,224 480,228 481,232 482,236 483,240 484,242 485,248 486,250 487,254 488,260 489,264 490,268 491,272 492,276 493,280 494,284 495,290 496,294 497,298 498,302 499,306 500,310 " stroke-width="1" fill="none" />
<polyline stroke="black" stroke-dasharray="10 10" points="500,306 528,154" stroke-width="1" fill="none" />
<text x="531" y="159" font-family="mono" font-size="14" fill="black">TR1:  5V :0.5ms</text>
<text x="539" y="179" font-family="mono" font-size="14" fill="black">ACQUIRED:</text>
<text x="539" y="199" font-family="mono" font-size="14" fill="black">Jan 01/00</text>
<text x="539" y="219" font-family="mono" font-size="14" fill="black">00:33:59</text>
<text x="539" y="65" font-family="mono" font-size="14" fill="black">PLOTTED:</text>
<text x="539" y="85" font-family="mono" font-size="14" fill="black">Jan 01/00</text>
<text x="539" y="105" font-family="mono" font-size="14" fill="black">00:33:59</text>
</svg>
