<?xml version="1.0" encoding="UTF-8" standalone="no"?>
<!DOCTYPE svg PUBLIC "-//W3C//DTD SVG 1.1//EN" "http://www.w3.org/Graphics/SVG/1.1/DTD/svg11.dtd">
<svg width="700" height="578" viewBox="-10 -10 700 578" xmlns="http://www.w3.org/2000/svg" xmlns:xlink="http://www.w3.org/1999/xlink">
<defs>
<pattern id="grid" width="50" height="60" y="64" patternUnits="userSpaceOnUse">
<path d="M 50 0 L 0 0 0 60" fill="none" stroke="black" stroke-width="0.2"/>
</pattern>
<pattern id="xaxis" width="10" height="8" patternUnits="userSpaceOnUse">
<path d="M 0 0 L 0 8" fill="none" stroke="black" stroke-width="0.2"/>
</pattern>
<pattern id="yaxis" width="8" height="12" y="64" patternUnits="userSpaceOnUse">
<path d="M 0 0 L 8 0" fill="none" stroke="black" stroke-width="0.2"/>
</pattern>
</defs>
<rect width="500" height="480" y="64" fill="none" stroke="black" stroke-width="0.2" />
<rect width="500" height="480" y="64" fill="url(#grid)" />
<rect y="300" width="500" height="8" fill="url(#xaxis)" />
<rect x="246" y="64" width="8" height="480" fill="url(#yaxis)" />
<polyline stroke="black" points="0,560 500,560" stroke-width="1" fill="none" />
<polyline stroke="black" points="500,560 500,50" stroke-width="1" fill="none" />
<polyline stroke="black" points="500,50 0,50" stroke-width="1" fill="none" />
<polyline stroke="black" points="0,50 0,560" stroke-width="1" fill="none" />
<polyline stroke="black" points="1,322 2,322 3,66 4,66 5,64 6,64 7,64 8,64 9,64 10,64 11,62 12,64 13,64 14,64 15,64 16,64 17,64 18,64 19,64 20,62 21,62 22,64 23,64 24,64 25,62 26,64 27,64 28,64 29,64 30,64 31,64 32,64 33,64 34,64 35,64 36,62 37,64 38,62 39,64 40,64 41,64 42,64 43,66 44,64 45,64 46,64 47,64 48,64 49,64 50,64 51,64 52,64 53,64 54,66 55,64 56,66 57,64 58,64 59,64 60,64 61,64 62,64 63,66 64,64 65,66 66,64 67,64 68,64 69,66 70,64 71,64 72,64 73,64 74,64 75,64 76,64 77,64 78,64 79,64 80,64 81,66 82,64 83,64 84,64 85,64 86,64 87,66 88,64 89,66 90,66 91,66 92,66 93,64 94,64 95,64 96,64 97,66 98,64 99,66 100,64 101,64 102,64 103,322 104,322 105,322 106,322 107,322 108,322 109,324 110,322 111,324 112,324 113,322 114,322 115,322 116,322 117,322 118,324 119,322 120,324 121,322 122,324 123,322 124,322 125,324 126,324 127,322 128,324 129,322 130,322 131,324 132,322 133,324 134,324 135,322 136,324 137,322 138,324 139,322 140,322 141,324 142,322 143,322 144,322 145,322 146,322 147,322 148,322 149,322 150,322 151,322 152,324 153,322 154,322 155,322 156,324 157,322 158,322 159,320 160,324 161,322 162,322 163,322 164,322 165,324 166,322 167,322 168,322 169,322 170,324 171,320 172,324 173,322 174,322 175,322 176,322 177,322 178,322 179,322 180,322 181,322 182,322 183,322 184,322 185,322 186,322 187,320 188,322 189,322 190,322 191,322 192,322 193,322 194,322 195,322 196,322 197,320 198,322 199,322 200,322 201,320 202,66 203,64 204,64 205,64 206,64 207,64 208,64 209,64 210,64 211,64 212,64 213,64 214,64 215,64 216,64 217,64 218,64 219,64 220,64 221,64 222,64 223,62 224,64 225,64 226,62 227,64 228,64 229,64 230,64 231,64 232,64 233,64 234,64 235,64 236,64 237,64 238,64 239,66 240,64 241,64 242,64 243,64 244,64 245,62 246,64 247,64 248,64 249,64 250,64 251,64 252,64 253,64 254,64 255,64 256,64 257,64 258,64 259,64 260,64 261,64 262,64 263,64 264,66 265,64 266,64 267,64 268,64 269,64 270,64 271,64 272,64 273,64 274,64 275,66 276,66 277,64 278,64 279,64 280,64 281,64 282,64 283,64 284,64 285,64 286,64 287,64 288,64 289,66 290,64 291,64 292,64 293,66 294,66 295,64 296,64 297,64 298,66 299,64 300,64 301,66 302,322 303,322 304,322 305,322 306,322 307,322 308,324 309,322 310,322 311,322 312,322 313,322 314,322 315,322 316,324 317,322 318,324 319,324 320,322 321,324 322,324 323,322 324,322 325,322 326,322 327,322 328,322 329,322 330,324 331,322 332,322 333,322 334,324 335,324 336,324 337,322 338,322 339,322 340,324 341,322 342,324 343,322 344,322 345,322 346,322 347,324 348,324 349,322 350,322 351,322 352,322 353,322 354,322 355,322 356,322 357,322 358,322 359,322 360,322 361,322 362,324 363,322 364,322 365,322 366,322 367,324 368,322 369,322 370,322 371,322 372,322 373,322 374,322 375,322 376,322 377,322 378,322 379,324 380,324 381,322 382,322 383,322 384,322 385,320 386,322 387,322 388,322 389,322 390,322 391,322 392,322 393,322 394,322 395,324 396,322 397,322 398,322 399,322 400,322 401,66 402,64 403,66 404,64 405,64 406,64 407,66 408,64 409,64 410,64 411,64 412,64 413,64 414,64 415,64 416,62 417,64 418,64 419,64 420,64 421,64 422,64 423,62 424,64 425,64 426,64 427,64 428,64 429,64 430,64 431,64 432,64 433,64 434,62 435,64 436,64 437,64 438,64 439,64 440,64 441,64 442,64 443,66 444,64 445,64 446,64 447,64 448,64 449,64 450,64 451,64 452,62 453,64 454,64 455,64 456,64 457,64 458,64 459,64 460,66 461,66 462,64 463,64 464,64 465,64 466,64 467,64 468,64 469,64 470,64 471,64 472,64 473,64 474,64 475,66 476,64 477,64 478,64 479,64 480,64 481,64 482,66 483,64 484,64 485,64 486,64 487,64 488,64 489,64 490,66 491,64 492,64 493,64 494,64 495,64 496,64 497,66 498,64 499,66 500,66 " stroke-width="1" fill="none" />
<polyline stroke="green" points="1,136 2,136 3,136 4,136 5,136 6,136 7,134 8,134 9,134 10,136 11,136 12,136 13,136 14,136 15,136 16,134 17,136 18,136 19,136 20,136 21,136 22,136 23,136 24,134 25,136 26,136 27,136 28,136 29,136 30,136 31,136 32,136 33,136 34,136 35,136 36,136 37,136 38,136 39,136 40,134 41,136 42,136 43,136 44,136 45,136 46,134 47,136 48,136 49,136 50,136 51,136 52,136 53,136 54,136 55,136 56,136 57,136 58,134 59,136 60,136 61,136 62,136 63,136 64,136 65,136 66,136 67,136 68,136 69,136 70,136 71,136 72,136 73,136 74,136 75,134 76,136 77,136 78,134 79,136 80,136 81,134 82,136 83,134 84,134 85,134 86,136 87,136 88,136 89,134 90,134 91,136 92,136 93,134 94,134 95,136 96,136 97,136 98,136 99,136 100,136 101,136 102,136 103,136 104,136 105,136 106,136 107,136 108,136 109,136 110,136 111,136 112,136 113,136 114,136 115,136 116,136 117,136 118,136 119,136 120,136 121,136 122,136 123,136 124,136 125,136 126,136 127,136 128,136 129,136 130,136 131,136 132,136 133,136 134,136 135,136 136,136 137,136 138,136 139,136 140,136 141,136 142,136 143,136 144,136 145,136 146,136 147,136 148,134 149,136 150,136 151,136 152,136 153,136 154,136 155,136 156,136 157,136 158,136 159,134 160,136 161,136 162,136 163,136 164,136 165,136 166,136 167,136 168,136 169,136 170,136 171,136 172,136 173,136 174,136 175,136 176,136 177,136 178,136 179,136 180,136 181,136 182,136 183,136 184,136 185,136 186,136 187,134 188,136 189,136 190,136 191,136 192,136 193,136 194,136 195,136 196,136 197,136 198,136 199,136 200,136 201,136 202,136 203,136 204,136 205,134 206,136 207,136 208,136 209,136 210,136 211,136 212,136 213,136 214,136 215,134 216,136 217,136 218,136 219,136 220,134 221,136 222,136 223,134 224,136 225,136 226,136 227,136 228,136 229,136 230,136 231,136 232,134 233,136 234,136 235,134 236,136 237,136 238,136 239,136 240,136 241,136 242,136 243,136 244,136 245,134 246,136 247,136 248,136 249,136 250,134 251,136 252,136 253,136 254,136 255,134 256,136 257,136 258,136 259,136 260,134 261,136 262,136 263,136 264,136 265,136 266,136 267,134 268,136 269,136 270,136 271,136 272,136 273,134 274,136 275,136 276,136 277,136 278,136 279,136 280,134 281,134 282,136 283,136 284,134 285,136 286,134 287,136 288,136 289,136 290,136 291,136 292,136 293,136 294,136 295,136 296,134 297,136 298,136 299,136 300,134 301,136 302,136 303,136 304,136 305,136 306,136 307,136 308,136 309,136 310,136 311,136 312,136 313,136 314,136 315,136 316,136 317,136 318,136 319,136 320,136 321,136 322,136 323,136 324,136 325,136 326,136 327,136 328,136 329,136 330,136 331,136 332,136 333,136 334,136 335,136 336,136 337,136 338,136 339,136 340,136 341,136 342,136 343,138 344,136 345,136 346,136 347,136 348,136 349,136 350,136 351,136 352,136 353,136 354,136 355,136 356,136 357,136 358,136 359,136 360,136 361,136 362,136 363,136 364,136 365,136 366,136 367,136 368,136 369,136 370,136 371,136 372,136 373,136 374,136 375,136 376,136 377,136 378,136 379,136 380,136 381,136 382,136 383,136 384,136 385,136 386,136 387,136 388,136 389,136 390,136 391,136 392,136 393,136 394,136 395,136 396,136 397,136 398,136 399,136 400,136 401,136 402,134 403,134 404,134 405,136 406,136 407,136 408,136 409,136 410,136 411,136 412,136 413,136 414,136 415,136 416,136 417,136 418,136 419,136 420,134 421,134 422,136 423,136 424,136 425,136 426,136 427,136 428,136 429,136 430,136 431,134 432,136 433,136 434,134 435,136 436,136 437,136 438,136 439,134 440,134 441,134 442,136 443,136 444,136 445,136 446,136 447,136 448,136 449,136 450,134 451,136 452,134 453,136 454,136 455,136 456,136 457,136 458,134 459,136 460,136 461,136 462,136 463,136 464,136 465,136 466,134 467,136 468,136 469,136 470,134 471,136 472,136 473,136 474,136 475,136 476,136 477,136 478,136 479,136 480,136 481,136 482,136 483,136 484,136 485,136 486,136 487,136 488,136 489,134 490,134 491,136 492,136 493,134 494,136 495,136 496,136 497,136 498,136 499,136 500,134 " stroke-width="1" fill="none" />
<polyline stroke="blue" points="1,466 2,468 3,470 4,466 5,466 6,468 7,468 8,468 9,468 10,466 11,468 12,468 13,468 14,466 15,468 16,468 17,466 18,468 19,470 20,468 21,468 22,466 23,466 24,468 25,464 26,466 27,468 28,466 29,466 30,468 31,468 32,468 33,468 34,466 35,466 36,466 37,468 38,466 39,468 40,468 41,466 42,468 43,468 44,466 45,464 46,468 47,468 48,464 49,466 50,464 51,466 52,466 53,466 54,466 55,468 56,468 57,466 58,466 59,466 60,468 61,466 62,464 63,468 64,468 65,466 66,468 67,468 68,466 69,468 70,464 71,464 72,466 73,468 74,468 75,466 76,464 77,468 78,468 79,468 80,468 81,468 82,468 83,468 84,466 85,468 86,466 87,468 88,468 89,468 90,468 91,470 92,468 93,466 94,468 95,468 96,466 97,468 98,468 99,466 100,468 101,468 102,468 103,468 104,466 105,466 106,466 107,466 108,468 109,468 110,468 111,468 112,468 113,468 114,466 115,468 116,470 117,468 118,466 119,468 120,468 121,466 122,466 123,470 124,468 125,468 126,468 127,468 128,468 129,466 130,468 131,468 132,466 133,466 134,466 135,470 136,466 137,466 138,468 139,466 140,468 141,468 142,468 143,466 144,466 145,466 146,468 147,468 148,468 149,468 150,470 151,466 152,466 153,466 154,466 155,466 156,468 157,466 158,466 159,468 160,466 161,468 162,468 163,468 164,466 165,468 166,464 167,466 168,466 169,466 170,466 171,466 172,466 173,468 174,464 175,468 176,468 177,464 178,468 179,466 180,464 181,468 182,468 183,468 184,468 185,466 186,468 187,468 188,468 189,468 190,466 191,470 192,470 193,466 194,468 195,468 196,468 197,464 198,468 199,468 200,464 201,466 202,468 203,468 204,468 205,468 206,466 207,466 208,466 209,466 210,468 211,466 212,466 213,464 214,466 215,466 216,466 217,468 218,466 219,468 220,466 221,468 222,466 223,468 224,468 225,466 226,466 227,466 228,466 229,468 230,466 231,466 232,466 233,466 234,466 235,466 236,468 237,468 238,468 239,466 240,468 241,468 242,468 243,466 244,468 245,466 246,468 247,468 248,466 249,466 250,468 251,266 252,264 253,262 254,264 255,260 256,262 257,262 258,264 259,266 260,264 261,262 262,262 263,264 264,266 265,264 266,266 267,266 268,266 269,264 270,264 271,264 272,266 273,262 274,266 275,264 276,266 277,262 278,266 279,266 280,264 281,262 282,264 283,266 284,264 285,266 286,266 287,264 288,264 289,262 290,266 291,266 292,266 293,264 294,264 295,262 296,266 297,264 298,264 299,266 300,266 301,264 302,264 303,264 304,266 305,264 306,266 307,264 308,264 309,264 310,264 311,266 312,266 313,264 314,264 315,264 316,264 317,264 318,264 319,266 320,262 321,264 322,264 323,266 324,262 325,264 326,262 327,264 328,264 329,262 330,266 331,264 332,264 333,264 334,264 335,264 336,264 337,264 338,264 339,266 340,262 341,262 342,264 343,264 344,262 345,264 346,264 347,266 348,262 349,264 350,264 351,262 352,262 353,262 354,264 355,264 356,264 357,266 358,264 359,262 360,266 361,264 362,266 363,264 364,262 365,264 366,264 367,264 368,264 369,264 370,264 371,264 372,264 373,264 374,264 375,264 376,264 377,262 378,264 379,262 380,264 381,264 382,262 383,264 384,264 385,264 386,264 387,264 388,264 389,264 390,264 391,264 392,264 393,262 394,264 395,264 396,262 397,264 398,264 399,264 400,264 401,262 402,262 403,264 404,264 405,262 406,264 407,264 408,264 409,262 410,264 411,266 412,264 413,264 414,264 415,264 416,264 417,264 418,266 419,264 420,264 421,264 422,264 423,264 424,264 425,262 426,264 427,264 428,264 429,262 430,264 431,264 432,264 433,262 434,262 435,264 436,262 437,264 438,264 439,264 440,264 441,262 442,262 443,262 444,264 445,264 446,264 447,264 448,262 449,262 450,264 451,264 452,262 453,264 454,262 455,264 456,264 457,264 458,262 459,264 460,262 461,262 462,262 463,264 464,264 465,262 466,262 467,264 468,264 469,260 470,262 471,264 472,264 473,262 474,264 475,264 476,262 477,264 478,264 479,262 480,264 481,262 482,264 483,262 484,262 485,262 486,262 487,262 488,262 489,262 490,262 491,262 492,264 493,264 494,266 495,262 496,264 497,264 498,264 499,264 500,264 " stroke-width="1" fill="none" />
<polyline stroke="black" points="6,436 0,440" stroke-width="1" fill="none" />
<polyline stroke="black" points="0,440 0,432" stroke-width="1" fill="none" />
<polyline stroke="black" points="0,432 6,436" stroke-width="1" fill="none" />
<polyline stroke="black" points="6,436 494,436" stroke-dasharray="10 10" stroke-width="1" fill="none" />
<polyline stroke="black" points="494,436 500,432" stroke-width="1" fill="none" />
<polyline stroke="black" points="500,432 500,440" stroke-width="1" fill="none" />
<polyline stroke="black" points="500,440 494,436" stroke-width="1" fill="none" />
<polyline stroke="black" points="68,556 71,560" stroke-width="1" fill="none" />
<polyline stroke="black" points="71,560 65,560" stroke-width="1" fill="none" />
<polyline stroke="black" points="65,560 68,556" stroke-width="1" fill="none" />
<polyline stroke="black" points="68,556 68,54" stroke-dasharray="10 10" stroke-width="1" fill="none" />
<polyline stroke="black" points="68,54 65,50" stroke-width="1" fill="none" />
<polyline stroke="black" points="65,50 71,50" stroke-width="1" fill="none" />
<polyline stroke="black" points="71,50 68,54" stroke-width="1" fill="none" />
<polyline stroke="black" points="450,50 447,54" stroke-width="1" fill="none" />
<polyline stroke="black" points="447,54 453,54" stroke-width="1" fill="none" />
<polyline stroke="black" points="453,54 450,50" stroke-width="1" fill="none" />
<polyline stroke="black" points="450,54 450,108" stroke-width="1" fill="none" />
<polyline stroke="black" points="450,112 453,108" stroke-width="1" fill="none" />
<polyline stroke="black" points="453,108 448,108" stroke-width="1" fill="none" />
<polyline stroke="black" points="448,108 450,112" stroke-width="1" fill="none" />
<text x="73" y="45" font-family="mono" font-size="14" fill="black">TR1 12.4V : 3.820ms  </text>
<text x="73" y="25" font-family="mono" font-size="14" fill="black">TR1 503Hz   1.99ms   49.7%     </text>
<text x="73" y="5" font-family="mono" font-size="14" fill="black">TR1 Pk-pk: 8.73V               </text>
<polyline stroke="black" points="500,66 528,154" stroke-dasharray="10 10" stroke-width="1" fill="none" />
<text x="531" y="159" font-family="mono" font-size="14" fill="black">TR1:  2V :0.5ms</text>
<text x="539" y="179" font-family="mono" font-size="14" fill="black">ACQUIRED:</text>
<text x="539" y="199" font-family="mono" font-size="14" fill="black">Jan 01/00</text>
<text x="539" y="219" font-family="mono" font-size="14" fill="black">01:24:31</text>
<polyline stroke="green" points="500,136 528,304" stroke-dasharray="10 10" stroke-width="1" fill="none" />
<text x="531" y="309" font-family="mono" font-size="14" fill="green">TR2:  0.1V :0.5ms</text>
<text x="539" y="329" font-family="mono" font-size="14" fill="green">ACQUIRED:</text>
<text x="539" y="349" font-family="mono" font-size="14" fill="green">Jan 01/00</text>
<text x="539" y="369" font-family="mono" font-size="14" fill="green">01:24:31</text>
<polyline stroke="blue" points="500,264 528,454" stroke-dasharray="10 10" stroke-width="1" fill="none" />
<text x="531" y="459" font-family="mono" font-size="14" fill="blue">REF:  1V :10us</text>
<text x="539" y="479" font-family="mono" font-size="14" fill="blue">ACQUIRED:</text>
<text x="539" y="499" font-family="mono" font-size="14" fill="blue">Jan 01/00</text>
<text x="539" y="519" font-family="mono" font-size="14" fill="blue">01:11:43</text>
<text x="539" y="65" font-family="mono" font-size="14" fill="black">PLOTTED:</text>
<text x="539" y="85" font-family="mono" font-size="14" fill="black">Jan 01/00</text>
<text x="539" y="105" font-family="mono" font-size="14" fill="black">01:24:31</text>
</svg>
