<?xml version="1.0" encoding="UTF-8" standalone="no"?>
<!DOCTYPE svg PUBLIC "-//W3C//DTD SVG 1.1//EN" "http://www.w3.org/Graphics/SVG/1.1/DTD/svg11.dtd">
<svg width="700" height="578" viewBox="-10 -10 700 578" xmlns="http://www.w3.org/2000/svg" xmlns:xlink="http://www.w3.org/1999/xlink">
<defs>
<pattern id="grid" width="50" height="60" y="64" patternUnits="userSpaceOnUse">
<path d="M 50 0 L 0 0 0 60" fill="none" stroke="black" stroke-width="0.2"/>
</pattern>
<pattern id="xaxis" width="10" height="8" patternUnits="userSpaceOnUse">
<path d="M 0 0 L 0 8" fill="none" stroke="black" stroke-width="0.2"/>
</pattern>
<pattern id="yaxis" width="8" height="12" y="64" patternUnits="userSpaceOnUse">
<path d="M 0 0 L 8 0" fill="none" stroke="black" stroke-width="0.2"/>
</pattern>
</defs>
<rect width="500" height="480" y="64" fill="none" stroke="black" stroke-width="0.2" />
<rect width="500" height="480" y="64" fill="url(#grid)" />
<rect y="300" width="500" height="8" fill="url(#xaxis)" />
<rect x="246" y="64" width="8" height="480" fill="url(#yaxis)" />
<polyline stroke="black" points="0,560 500,560" stroke-width="1" fill="none" />
<polyline stroke="black" points="500,560 500,50" stroke-width="1" fill="none" />
<polyline stroke="black" points="500,50 0,50" stroke-width="1" fill="none" />
<polyline stroke="black" points="0,50 0,560" stroke-width="1" fill="none" />
<circle cx="252" cy="304" r="1" fill="black" />
<circle cx="260" cy="302" r="1" fill="black" />
<circle cx="266" cy="298" r="1" fill="black" />
<circle cx="274" cy="290" r="1" fill="black" />
<circle cx="280" cy="284" r="1" fill="black" />
<circle cx="288" cy="276" r="1" fill="black" />
<circle cx="294" cy="268" r="1" fill="black" />
<circle cx="300" cy="262" r="1" fill="black" />
<circle cx="308" cy="254" r="1" fill="black" />
<circle cx="312" cy="246" r="1" fill="black" />
<circle cx="320" cy="240" r="1" fill="black" />
<circle cx="324" cy="232" r="1" fill="black" />
<circle cx="330" cy="226" r="1" fill="black" />
<circle cx="338" cy="218" r="1" fill="black" />
<circle cx="342" cy="212" r="1" fill="black" />
<circle cx="348" cy="206" r="1" fill="black" />
<circle cx="352" cy="200" r="1" fill="black" />
<circle cx="358" cy="192" r="1" fill="black" />
<circle cx="362" cy="188" r="1" fill="black" />
<circle cx="368" cy="182" r="1" fill="black" />
<circle cx="372" cy="176" r="1" fill="black" />
<circle cx="378" cy="170" r="1" fill="black" />
<circle cx="382" cy="164" r="1" fill="black" />
<circle cx="388" cy="158" r="1" fill="black" />
<circle cx="390" cy="154" r="1" fill="black" />
<circle cx="396" cy="148" r="1" fill="black" />
<circle cx="400" cy="144" r="1" fill="black" />
<circle cx="404" cy="138" r="1" fill="black" />
<circle cx="408" cy="134" r="1" fill="black" />
<circle cx="410" cy="130" r="1" fill="black" />
<circle cx="414" cy="126" r="1" fill="black" />
<circle cx="420" cy="122" r="1" fill="black" />
<circle cx="422" cy="116" r="1" fill="black" />
<circle cx="426" cy="112" r="1" fill="black" />
<circle cx="428" cy="110" r="1" fill="black" />
<circle cx="430" cy="106" r="1" fill="black" />
<circle cx="432" cy="104" r="1" fill="black" />
<circle cx="436" cy="102" r="1" fill="black" />
<circle cx="436" cy="100" r="1" fill="black" />
<circle cx="438" cy="98" r="1" fill="black" />
<circle cx="440" cy="96" r="1" fill="black" />
<circle cx="440" cy="96" r="1" fill="black" />
<circle cx="440" cy="96" r="1" fill="black" />
<circle cx="440" cy="96" r="1" fill="black" />
<circle cx="440" cy="96" r="1" fill="black" />
<circle cx="438" cy="98" r="1" fill="black" />
<circle cx="436" cy="98" r="1" fill="black" />
<circle cx="436" cy="102" r="1" fill="black" />
<circle cx="432" cy="104" r="1" fill="black" />
<circle cx="430" cy="108" r="1" fill="black" />
<circle cx="428" cy="112" r="1" fill="black" />
<circle cx="424" cy="114" r="1" fill="black" />
<circle cx="420" cy="120" r="1" fill="black" />
<circle cx="416" cy="124" r="1" fill="black" />
<circle cx="410" cy="130" r="1" fill="black" />
<circle cx="406" cy="136" r="1" fill="black" />
<circle cx="400" cy="142" r="1" fill="black" />
<circle cx="396" cy="148" r="1" fill="black" />
<circle cx="390" cy="154" r="1" fill="black" />
<circle cx="384" cy="162" r="1" fill="black" />
<circle cx="378" cy="168" r="1" fill="black" />
<circle cx="372" cy="176" r="1" fill="black" />
<circle cx="366" cy="184" r="1" fill="black" />
<circle cx="360" cy="192" r="1" fill="black" />
<circle cx="352" cy="198" r="1" fill="black" />
<circle cx="346" cy="208" r="1" fill="black" />
<circle cx="340" cy="216" r="1" fill="black" />
<circle cx="332" cy="224" r="1" fill="black" />
<circle cx="324" cy="232" r="1" fill="black" />
<circle cx="320" cy="240" r="1" fill="black" />
<circle cx="310" cy="248" r="1" fill="black" />
<circle cx="304" cy="256" r="1" fill="black" />
<circle cx="296" cy="266" r="1" fill="black" />
<circle cx="290" cy="274" r="1" fill="black" />
<circle cx="282" cy="282" r="1" fill="black" />
<circle cx="276" cy="290" r="1" fill="black" />
<circle cx="268" cy="298" r="1" fill="black" />
<circle cx="260" cy="304" r="1" fill="black" />
<circle cx="250" cy="306" r="1" fill="black" />
<circle cx="246" cy="304" r="1" fill="black" />
<circle cx="240" cy="304" r="1" fill="black" />
<circle cx="232" cy="304" r="1" fill="black" />
<circle cx="226" cy="306" r="1" fill="black" />
<circle cx="220" cy="304" r="1" fill="black" />
<circle cx="212" cy="304" r="1" fill="black" />
<circle cx="206" cy="304" r="1" fill="black" />
<circle cx="200" cy="304" r="1" fill="black" />
<circle cx="194" cy="304" r="1" fill="black" />
<circle cx="188" cy="306" r="1" fill="black" />
<circle cx="182" cy="304" r="1" fill="black" />
<circle cx="176" cy="306" r="1" fill="black" />
<circle cx="170" cy="306" r="1" fill="black" />
<circle cx="166" cy="304" r="1" fill="black" />
<circle cx="160" cy="304" r="1" fill="black" />
<circle cx="154" cy="304" r="1" fill="black" />
<circle cx="150" cy="304" r="1" fill="black" />
<circle cx="144" cy="306" r="1" fill="black" />
<circle cx="140" cy="304" r="1" fill="black" />
<circle cx="134" cy="306" r="1" fill="black" />
<circle cx="130" cy="304" r="1" fill="black" />
<circle cx="124" cy="304" r="1" fill="black" />
<circle cx="120" cy="306" r="1" fill="black" />
<circle cx="116" cy="304" r="1" fill="black" />
<circle cx="112" cy="306" r="1" fill="black" />
<circle cx="108" cy="304" r="1" fill="black" />
<circle cx="104" cy="304" r="1" fill="black" />
<circle cx="100" cy="304" r="1" fill="black" />
<circle cx="96" cy="306" r="1" fill="black" />
<circle cx="92" cy="304" r="1" fill="black" />
<circle cx="90" cy="306" r="1" fill="black" />
<circle cx="86" cy="306" r="1" fill="black" />
<circle cx="82" cy="306" r="1" fill="black" />
<circle cx="80" cy="306" r="1" fill="black" />
<circle cx="76" cy="306" r="1" fill="black" />
<circle cx="72" cy="306" r="1" fill="black" />
<circle cx="70" cy="306" r="1" fill="black" />
<circle cx="68" cy="306" r="1" fill="black" />
<circle cx="66" cy="306" r="1" fill="black" />
<circle cx="64" cy="306" r="1" fill="black" />
<circle cx="62" cy="304" r="1" fill="black" />
<circle cx="60" cy="304" r="1" fill="black" />
<circle cx="60" cy="304" r="1" fill="black" />
<circle cx="60" cy="306" r="1" fill="black" />
<circle cx="60" cy="306" r="1" fill="black" />
<circle cx="60" cy="306" r="1" fill="black" />
<circle cx="60" cy="304" r="1" fill="black" />
<circle cx="62" cy="306" r="1" fill="black" />
<circle cx="62" cy="306" r="1" fill="black" />
<circle cx="64" cy="304" r="1" fill="black" />
<circle cx="68" cy="304" r="1" fill="black" />
<circle cx="70" cy="306" r="1" fill="black" />
<circle cx="72" cy="306" r="1" fill="black" />
<circle cx="78" cy="306" r="1" fill="black" />
<circle cx="80" cy="304" r="1" fill="black" />
<circle cx="84" cy="306" r="1" fill="black" />
<circle cx="90" cy="304" r="1" fill="black" />
<circle cx="94" cy="306" r="1" fill="black" />
<circle cx="100" cy="304" r="1" fill="black" />
<circle cx="104" cy="304" r="1" fill="black" />
<circle cx="110" cy="306" r="1" fill="black" />
<circle cx="116" cy="306" r="1" fill="black" />
<circle cx="122" cy="304" r="1" fill="black" />
<circle cx="128" cy="306" r="1" fill="black" />
<circle cx="134" cy="304" r="1" fill="black" />
<circle cx="140" cy="304" r="1" fill="black" />
<circle cx="148" cy="304" r="1" fill="black" />
<circle cx="154" cy="304" r="1" fill="black" />
<circle cx="160" cy="304" r="1" fill="black" />
<circle cx="168" cy="304" r="1" fill="black" />
<circle cx="174" cy="304" r="1" fill="black" />
<circle cx="182" cy="306" r="1" fill="black" />
<circle cx="190" cy="304" r="1" fill="black" />
<circle cx="198" cy="304" r="1" fill="black" />
<circle cx="204" cy="304" r="1" fill="black" />
<circle cx="212" cy="304" r="1" fill="black" />
<circle cx="220" cy="304" r="1" fill="black" />
<circle cx="226" cy="306" r="1" fill="black" />
<circle cx="234" cy="304" r="1" fill="black" />
<circle cx="240" cy="304" r="1" fill="black" />
<circle cx="248" cy="304" r="1" fill="black" />
<circle cx="254" cy="304" r="1" fill="black" />
<circle cx="262" cy="302" r="1" fill="black" />
<circle cx="270" cy="296" r="1" fill="black" />
<circle cx="276" cy="290" r="1" fill="black" />
<circle cx="282" cy="282" r="1" fill="black" />
<circle cx="290" cy="274" r="1" fill="black" />
<circle cx="296" cy="268" r="1" fill="black" />
<circle cx="302" cy="258" r="1" fill="black" />
<circle cx="310" cy="252" r="1" fill="black" />
<circle cx="314" cy="244" r="1" fill="black" />
<circle cx="320" cy="238" r="1" fill="black" />
<circle cx="326" cy="230" r="1" fill="black" />
<circle cx="332" cy="222" r="1" fill="black" />
<circle cx="338" cy="218" r="1" fill="black" />
<circle cx="342" cy="210" r="1" fill="black" />
<circle cx="350" cy="204" r="1" fill="black" />
<circle cx="354" cy="198" r="1" fill="black" />
<circle cx="360" cy="192" r="1" fill="black" />
<circle cx="364" cy="184" r="1" fill="black" />
<circle cx="370" cy="180" r="1" fill="black" />
<circle cx="374" cy="174" r="1" fill="black" />
<circle cx="380" cy="168" r="1" fill="black" />
<circle cx="384" cy="164" r="1" fill="black" />
<circle cx="388" cy="156" r="1" fill="black" />
<circle cx="392" cy="152" r="1" fill="black" />
<circle cx="398" cy="148" r="1" fill="black" />
<circle cx="400" cy="142" r="1" fill="black" />
<circle cx="406" cy="136" r="1" fill="black" />
<circle cx="410" cy="132" r="1" fill="black" />
<circle cx="412" cy="128" r="1" fill="black" />
<circle cx="416" cy="124" r="1" fill="black" />
<circle cx="420" cy="120" r="1" fill="black" />
<circle cx="422" cy="116" r="1" fill="black" />
<circle cx="428" cy="112" r="1" fill="black" />
<circle cx="430" cy="108" r="1" fill="black" />
<circle cx="432" cy="106" r="1" fill="black" />
<circle cx="432" cy="102" r="1" fill="black" />
<circle cx="436" cy="100" r="1" fill="black" />
<circle cx="438" cy="98" r="1" fill="black" />
<circle cx="438" cy="98" r="1" fill="black" />
<circle cx="440" cy="96" r="1" fill="black" />
<circle cx="440" cy="96" r="1" fill="black" />
<circle cx="440" cy="96" r="1" fill="black" />
<circle cx="440" cy="96" r="1" fill="black" />
<circle cx="440" cy="96" r="1" fill="black" />
<circle cx="438" cy="98" r="1" fill="black" />
<circle cx="436" cy="100" r="1" fill="black" />
<circle cx="434" cy="102" r="1" fill="black" />
<circle cx="432" cy="106" r="1" fill="black" />
<circle cx="430" cy="108" r="1" fill="black" />
<circle cx="426" cy="112" r="1" fill="black" />
<circle cx="422" cy="116" r="1" fill="black" />
<circle cx="420" cy="122" r="1" fill="black" />
<circle cx="414" cy="126" r="1" fill="black" />
<circle cx="410" cy="132" r="1" fill="black" />
<circle cx="404" cy="138" r="1" fill="black" />
<circle cx="400" cy="144" r="1" fill="black" />
<circle cx="394" cy="150" r="1" fill="black" />
<circle cx="390" cy="156" r="1" fill="black" />
<circle cx="382" cy="164" r="1" fill="black" />
<circle cx="376" cy="172" r="1" fill="black" />
<circle cx="370" cy="178" r="1" fill="black" />
<circle cx="364" cy="186" r="1" fill="black" />
<circle cx="358" cy="194" r="1" fill="black" />
<circle cx="350" cy="202" r="1" fill="black" />
<circle cx="344" cy="210" r="1" fill="black" />
<circle cx="338" cy="218" r="1" fill="black" />
<circle cx="330" cy="226" r="1" fill="black" />
<circle cx="322" cy="234" r="1" fill="black" />
<circle cx="316" cy="242" r="1" fill="black" />
<circle cx="310" cy="252" r="1" fill="black" />
<circle cx="300" cy="260" r="1" fill="black" />
<circle cx="294" cy="268" r="1" fill="black" />
<circle cx="288" cy="276" r="1" fill="black" />
<circle cx="280" cy="284" r="1" fill="black" />
<circle cx="272" cy="292" r="1" fill="black" />
<circle cx="266" cy="300" r="1" fill="black" />
<circle cx="260" cy="306" r="1" fill="black" />
<circle cx="244" cy="306" r="1" fill="black" />
<circle cx="244" cy="304" r="1" fill="black" />
<circle cx="238" cy="304" r="1" fill="black" />
<circle cx="230" cy="304" r="1" fill="black" />
<circle cx="224" cy="304" r="1" fill="black" />
<circle cx="218" cy="304" r="1" fill="black" />
<circle cx="210" cy="304" r="1" fill="black" />
<circle cx="204" cy="304" r="1" fill="black" />
<circle cx="200" cy="304" r="1" fill="black" />
<circle cx="192" cy="304" r="1" fill="black" />
<circle cx="186" cy="304" r="1" fill="black" />
<circle cx="180" cy="304" r="1" fill="black" />
<circle cx="176" cy="304" r="1" fill="black" />
<circle cx="170" cy="304" r="1" fill="black" />
<circle cx="164" cy="304" r="1" fill="black" />
<circle cx="158" cy="306" r="1" fill="black" />
<circle cx="152" cy="304" r="1" fill="black" />
<circle cx="150" cy="306" r="1" fill="black" />
<circle cx="144" cy="304" r="1" fill="black" />
<circle cx="138" cy="304" r="1" fill="black" />
<circle cx="134" cy="306" r="1" fill="black" />
<circle cx="130" cy="306" r="1" fill="black" />
<circle cx="124" cy="306" r="1" fill="black" />
<circle cx="120" cy="304" r="1" fill="black" />
<circle cx="116" cy="304" r="1" fill="black" />
<circle cx="110" cy="306" r="1" fill="black" />
<circle cx="106" cy="306" r="1" fill="black" />
<circle cx="102" cy="304" r="1" fill="black" />
<circle cx="100" cy="306" r="1" fill="black" />
<circle cx="94" cy="306" r="1" fill="black" />
<circle cx="90" cy="304" r="1" fill="black" />
<circle cx="90" cy="304" r="1" fill="black" />
<circle cx="84" cy="306" r="1" fill="black" />
<circle cx="80" cy="306" r="1" fill="black" />
<circle cx="78" cy="306" r="1" fill="black" />
<circle cx="76" cy="306" r="1" fill="black" />
<circle cx="72" cy="304" r="1" fill="black" />
<circle cx="70" cy="306" r="1" fill="black" />
<circle cx="68" cy="304" r="1" fill="black" />
<circle cx="64" cy="304" r="1" fill="black" />
<circle cx="64" cy="306" r="1" fill="black" />
<circle cx="62" cy="306" r="1" fill="black" />
<circle cx="60" cy="306" r="1" fill="black" />
<circle cx="60" cy="304" r="1" fill="black" />
<circle cx="60" cy="306" r="1" fill="black" />
<circle cx="60" cy="304" r="1" fill="black" />
<circle cx="60" cy="306" r="1" fill="black" />
<circle cx="60" cy="306" r="1" fill="black" />
<circle cx="62" cy="306" r="1" fill="black" />
<circle cx="64" cy="306" r="1" fill="black" />
<circle cx="66" cy="304" r="1" fill="black" />
<circle cx="70" cy="304" r="1" fill="black" />
<circle cx="70" cy="306" r="1" fill="black" />
<circle cx="74" cy="304" r="1" fill="black" />
<circle cx="78" cy="304" r="1" fill="black" />
<circle cx="82" cy="304" r="1" fill="black" />
<circle cx="86" cy="306" r="1" fill="black" />
<circle cx="90" cy="304" r="1" fill="black" />
<circle cx="96" cy="306" r="1" fill="black" />
<circle cx="100" cy="304" r="1" fill="black" />
<circle cx="106" cy="306" r="1" fill="black" />
<circle cx="112" cy="306" r="1" fill="black" />
<circle cx="118" cy="304" r="1" fill="black" />
<circle cx="124" cy="306" r="1" fill="black" />
<circle cx="130" cy="306" r="1" fill="black" />
<circle cx="138" cy="304" r="1" fill="black" />
<circle cx="144" cy="304" r="1" fill="black" />
<circle cx="150" cy="304" r="1" fill="black" />
<circle cx="158" cy="304" r="1" fill="black" />
<circle cx="164" cy="304" r="1" fill="black" />
<circle cx="170" cy="304" r="1" fill="black" />
<circle cx="178" cy="304" r="1" fill="black" />
<circle cx="186" cy="304" r="1" fill="black" />
<circle cx="192" cy="304" r="1" fill="black" />
<circle cx="200" cy="306" r="1" fill="black" />
<circle cx="208" cy="304" r="1" fill="black" />
<circle cx="214" cy="306" r="1" fill="black" />
<circle cx="220" cy="304" r="1" fill="black" />
<circle cx="230" cy="304" r="1" fill="black" />
<circle cx="236" cy="304" r="1" fill="black" />
<circle cx="244" cy="304" r="1" fill="black" />
<circle cx="250" cy="304" r="1" fill="black" />
<circle cx="258" cy="304" r="1" fill="black" />
<circle cx="264" cy="300" r="1" fill="black" />
<circle cx="270" cy="294" r="1" fill="black" />
<circle cx="278" cy="286" r="1" fill="black" />
<circle cx="284" cy="280" r="1" fill="black" />
<circle cx="290" cy="272" r="1" fill="black" />
<circle cx="298" cy="264" r="1" fill="black" />
<circle cx="304" cy="256" r="1" fill="black" />
<circle cx="310" cy="250" r="1" fill="black" />
<circle cx="316" cy="242" r="1" fill="black" />
<circle cx="322" cy="236" r="1" fill="black" />
<circle cx="328" cy="228" r="1" fill="black" />
<circle cx="334" cy="222" r="1" fill="black" />
<circle cx="340" cy="216" r="1" fill="black" />
<circle cx="346" cy="208" r="1" fill="black" />
<circle cx="350" cy="202" r="1" fill="black" />
<circle cx="356" cy="196" r="1" fill="black" />
<circle cx="360" cy="190" r="1" fill="black" />
<circle cx="366" cy="184" r="1" fill="black" />
<circle cx="370" cy="178" r="1" fill="black" />
<circle cx="376" cy="172" r="1" fill="black" />
<circle cx="380" cy="166" r="1" fill="black" />
<circle cx="384" cy="162" r="1" fill="black" />
<circle cx="390" cy="156" r="1" fill="black" />
<circle cx="394" cy="152" r="1" fill="black" />
<circle cx="398" cy="146" r="1" fill="black" />
<circle cx="402" cy="140" r="1" fill="black" />
<circle cx="406" cy="136" r="1" fill="black" />
<circle cx="410" cy="132" r="1" fill="black" />
<circle cx="412" cy="128" r="1" fill="black" />
<circle cx="418" cy="122" r="1" fill="black" />
<circle cx="420" cy="118" r="1" fill="black" />
<circle cx="424" cy="116" r="1" fill="black" />
<circle cx="426" cy="110" r="1" fill="black" />
<circle cx="430" cy="108" r="1" fill="black" />
<circle cx="432" cy="106" r="1" fill="black" />
<circle cx="434" cy="102" r="1" fill="black" />
<circle cx="436" cy="100" r="1" fill="black" />
<circle cx="438" cy="98" r="1" fill="black" />
<circle cx="440" cy="96" r="1" fill="black" />
<circle cx="440" cy="96" r="1" fill="black" />
<circle cx="440" cy="96" r="1" fill="black" />
<circle cx="440" cy="96" r="1" fill="black" />
<circle cx="440" cy="96" r="1" fill="black" />
<circle cx="440" cy="96" r="1" fill="black" />
<circle cx="438" cy="98" r="1" fill="black" />
<circle cx="436" cy="100" r="1" fill="black" />
<circle cx="434" cy="104" r="1" fill="black" />
<circle cx="430" cy="106" r="1" fill="black" />
<circle cx="428" cy="110" r="1" fill="black" />
<circle cx="424" cy="114" r="1" fill="black" />
<circle cx="420" cy="118" r="1" fill="black" />
<circle cx="418" cy="124" r="1" fill="black" />
<circle cx="412" cy="128" r="1" fill="black" />
<circle cx="408" cy="134" r="1" fill="black" />
<circle cx="402" cy="140" r="1" fill="black" />
<circle cx="398" cy="146" r="1" fill="black" />
<circle cx="392" cy="154" r="1" fill="black" />
<circle cx="386" cy="160" r="1" fill="black" />
<circle cx="380" cy="166" r="1" fill="black" />
<circle cx="374" cy="174" r="1" fill="black" />
<circle cx="368" cy="182" r="1" fill="black" />
<circle cx="360" cy="190" r="1" fill="black" />
<circle cx="354" cy="196" r="1" fill="black" />
<circle cx="348" cy="204" r="1" fill="black" />
<circle cx="340" cy="214" r="1" fill="black" />
<circle cx="334" cy="222" r="1" fill="black" />
<circle cx="328" cy="230" r="1" fill="black" />
<circle cx="320" cy="236" r="1" fill="black" />
<circle cx="312" cy="246" r="1" fill="black" />
<circle cx="306" cy="254" r="1" fill="black" />
<circle cx="300" cy="264" r="1" fill="black" />
<circle cx="290" cy="272" r="1" fill="black" />
<circle cx="284" cy="280" r="1" fill="black" />
<circle cx="278" cy="288" r="1" fill="black" />
<circle cx="270" cy="296" r="1" fill="black" />
<circle cx="262" cy="304" r="1" fill="black" />
<circle cx="252" cy="306" r="1" fill="black" />
<circle cx="244" cy="306" r="1" fill="black" />
<circle cx="242" cy="304" r="1" fill="black" />
<circle cx="234" cy="304" r="1" fill="black" />
<circle cx="228" cy="304" r="1" fill="black" />
<circle cx="222" cy="306" r="1" fill="black" />
<circle cx="216" cy="304" r="1" fill="black" />
<circle cx="210" cy="306" r="1" fill="black" />
<circle cx="202" cy="306" r="1" fill="black" />
<circle cx="196" cy="304" r="1" fill="black" />
<circle cx="190" cy="306" r="1" fill="black" />
<circle cx="184" cy="304" r="1" fill="black" />
<circle cx="180" cy="306" r="1" fill="black" />
<circle cx="172" cy="304" r="1" fill="black" />
<circle cx="168" cy="306" r="1" fill="black" />
<circle cx="162" cy="304" r="1" fill="black" />
<circle cx="158" cy="306" r="1" fill="black" />
<circle cx="150" cy="306" r="1" fill="black" />
<circle cx="146" cy="306" r="1" fill="black" />
<circle cx="142" cy="304" r="1" fill="black" />
<circle cx="138" cy="304" r="1" fill="black" />
<circle cx="132" cy="304" r="1" fill="black" />
<circle cx="128" cy="304" r="1" fill="black" />
<circle cx="122" cy="304" r="1" fill="black" />
<circle cx="118" cy="306" r="1" fill="black" />
<circle cx="114" cy="306" r="1" fill="black" />
<circle cx="110" cy="304" r="1" fill="black" />
<circle cx="106" cy="304" r="1" fill="black" />
<circle cx="102" cy="306" r="1" fill="black" />
<circle cx="98" cy="306" r="1" fill="black" />
<circle cx="94" cy="304" r="1" fill="black" />
<circle cx="90" cy="306" r="1" fill="black" />
<circle cx="88" cy="306" r="1" fill="black" />
<circle cx="84" cy="306" r="1" fill="black" />
<circle cx="80" cy="306" r="1" fill="black" />
<circle cx="76" cy="306" r="1" fill="black" />
<circle cx="74" cy="306" r="1" fill="black" />
<circle cx="70" cy="304" r="1" fill="black" />
<circle cx="70" cy="306" r="1" fill="black" />
<circle cx="66" cy="306" r="1" fill="black" />
<circle cx="64" cy="306" r="1" fill="black" />
<circle cx="62" cy="306" r="1" fill="black" />
<circle cx="60" cy="306" r="1" fill="black" />
<circle cx="60" cy="306" r="1" fill="black" />
<circle cx="60" cy="306" r="1" fill="black" />
<circle cx="60" cy="306" r="1" fill="black" />
<circle cx="60" cy="306" r="1" fill="black" />
<circle cx="60" cy="306" r="1" fill="black" />
<circle cx="60" cy="306" r="1" fill="black" />
<circle cx="62" cy="306" r="1" fill="black" />
<circle cx="64" cy="304" r="1" fill="black" />
<circle cx="66" cy="304" r="1" fill="black" />
<circle cx="70" cy="304" r="1" fill="black" />
<circle cx="72" cy="304" r="1" fill="black" />
<circle cx="76" cy="304" r="1" fill="black" />
<circle cx="80" cy="304" r="1" fill="black" />
<circle cx="84" cy="306" r="1" fill="black" />
<circle cx="88" cy="306" r="1" fill="black" />
<circle cx="92" cy="304" r="1" fill="black" />
<circle cx="98" cy="306" r="1" fill="black" />
<circle cx="102" cy="304" r="1" fill="black" />
<circle cx="110" cy="304" r="1" fill="black" />
<circle cx="114" cy="306" r="1" fill="black" />
<circle cx="120" cy="306" r="1" fill="black" />
<circle cx="128" cy="304" r="1" fill="black" />
<circle cx="132" cy="306" r="1" fill="black" />
<circle cx="140" cy="304" r="1" fill="black" />
<circle cx="146" cy="304" r="1" fill="black" />
<circle cx="152" cy="304" r="1" fill="black" />
<circle cx="160" cy="306" r="1" fill="black" />
<circle cx="166" cy="304" r="1" fill="black" />
<circle cx="172" cy="304" r="1" fill="black" />
<circle cx="180" cy="306" r="1" fill="black" />
<circle cx="188" cy="304" r="1" fill="black" />
<circle cx="196" cy="304" r="1" fill="black" />
<circle cx="202" cy="304" r="1" fill="black" />
<circle cx="210" cy="304" r="1" fill="black" />
<circle cx="218" cy="304" r="1" fill="black" />
<circle cx="224" cy="306" r="1" fill="black" />
<circle cx="230" cy="304" r="1" fill="black" />
<circle cx="240" cy="304" r="1" fill="black" />
<circle cx="246" cy="304" r="1" fill="black" />
<circle cx="252" cy="304" r="1" fill="black" />
<circle cx="260" cy="304" r="1" fill="black" />
<circle cx="268" cy="298" r="1" fill="black" />
<circle cx="274" cy="290" r="1" fill="black" />
<circle cx="280" cy="284" r="1" fill="black" />
<circle cx="288" cy="276" r="1" fill="black" />
<circle cx="294" cy="270" r="1" fill="black" />
<circle cx="300" cy="262" r="1" fill="black" />
<circle cx="306" cy="254" r="1" fill="black" />
<circle cx="312" cy="246" r="1" fill="black" />
<circle cx="320" cy="240" r="1" fill="black" />
<circle cx="324" cy="232" r="1" fill="black" />
<circle cx="330" cy="226" r="1" fill="black" />
<circle cx="336" cy="220" r="1" fill="black" />
<circle cx="342" cy="212" r="1" fill="black" />
<circle cx="348" cy="206" r="1" fill="black" />
<circle cx="352" cy="200" r="1" fill="black" />
<circle cx="358" cy="194" r="1" fill="black" />
<circle cx="362" cy="188" r="1" fill="black" />
<circle cx="368" cy="182" r="1" fill="black" />
<circle cx="372" cy="176" r="1" fill="black" />
<circle cx="378" cy="170" r="1" fill="black" />
<text x="531" y="159" font-family="mono" font-size="14" fill="black">TR1:  2V :10us</text>
<text x="539" y="179" font-family="mono" font-size="14" fill="black">ACQUIRED:</text>
<text x="539" y="199" font-family="mono" font-size="14" fill="black">Jan 01/00</text>
<text x="539" y="219" font-family="mono" font-size="14" fill="black">00:17:07</text>
<text x="531" y="309" font-family="mono" font-size="14" fill="green">TR2:  2V :10us</text>
<text x="539" y="329" font-family="mono" font-size="14" fill="green">ACQUIRED:</text>
<text x="539" y="349" font-family="mono" font-size="14" fill="green">Jan 01/00</text>
<text x="539" y="369" font-family="mono" font-size="14" fill="green">00:17:07</text>
<text x="539" y="65" font-family="mono" font-size="14" fill="black">PLOTTED:</text>
<text x="539" y="85" font-family="mono" font-size="14" fill="black">Jan 01/00</text>
<text x="539" y="105" font-family="mono" font-size="14" fill="black">00:17:07</text>
</svg>
